MoBL_ARMS_Upper_Limb_Model_OpenSim_states
version=1
nRows=8
nColumns=55
inDegrees=yes

# SIMM Motion File Header:
name MoBL_ARMS_Upper_Limb_Model_OpenSim_states
datacolumns 55
datarows 8
otherdata 1
range 0.00000000 0.00349156
endheader
time	sternoclavicular_r2	sternoclavicular_r3	unrotscap_r3	unrotscap_r2	acromioclavicular_r2	acromioclavicular_r3	acromioclavicular_r1	unrothum_r1	unrothum_r3	unrothum_r2	elv_angle	shoulder_elv	shoulder1_r2	shoulder_rot	elbow_flexion	pro_sup	deviation	flexion	wrist_hand_r1	wrist_hand_r3	sternoclavicular_r2_u	sternoclavicular_r3_u	unrotscap_r3_u	unrotscap_r2_u	acromioclavicular_r2_u	acromioclavicular_r3_u	acromioclavicular_r1_u	unrothum_r1_u	unrothum_r3_u	unrothum_r2_u	elv_angle_u	shoulder_elv_u	shoulder1_r2_u	shoulder_rot_u	elbow_flexion_u	pro_sup_u	deviation_u	flexion_u	wrist_hand_r1_u	wrist_hand_r3_u	SUP.activation	SUP.fiber_length	ECRL.activation	ECRL.fiber_length	ECRB.activation	ECRB.fiber_length	ECU.activation	ECU.fiber_length	FCR.activation	FCR.fiber_length	FCU.activation	FCU.fiber_length	PQ.activation	PQ.fiber_length
      0.00000000	     -4.84001085	      2.05000016	     -2.05000016	      4.84001085	     -0.98000374	      7.92004553	      3.56000596	     -3.56000596	     -7.92004553	      0.98000374	    -50.00000000	     20.00000000	     50.00000000	     20.00000000	     90.00021046	     90.00000000	      0.00000000	      0.00000000	      0.00000000	      0.00000000	      0.00000000	      0.00000000	      0.00000000	      0.00000000	      0.00000000	      0.00000000	      0.00000000	      0.00000000	      0.00000000	      0.00000000	      0.00000000	      0.00000000	      0.00000000	      0.00000000	      0.00000000	      0.00000000	      0.00000000	      0.00000000	      0.00000000	      0.00000000	      0.05000000	      0.04347515	      0.05000000	      0.06680395	      0.05000000	      0.06138232	      0.05000000	      0.07147762	      0.05000000	      0.05228842	      0.05000000	      0.03695385	      0.05000000	      0.01769726
      0.00063700	     -4.84001085	      2.05000016	     -2.05000016	      4.84001085	     -0.98000374	      7.92004553	      3.56000596	     -3.56000596	     -7.92004553	      0.98000374	    -50.00000000	     20.00000000	     50.00000000	     20.00000000	     90.00021046	     89.87225551	     -0.00000000	      0.03422973	      0.00000000	      0.01711486	     -0.00000000	      0.00000000	      0.00000000	      0.00000000	     -0.00000000	      0.00000000	     -0.00000000	      0.00000000	     -0.00000000	     -0.00000000	     -0.00000000	      0.00000000	      0.00000000	      0.00000000	     -0.00000000	   -390.19332831	     -0.00000000	    104.63389494	      0.00000000	     52.31694747	      0.04970816	      0.04347363	      0.04970816	      0.06680396	      0.04970816	      0.06138239	      0.04970816	      0.07147765	      0.04970816	      0.05228834	      0.04970816	      0.03695378	      0.04970816	      0.01769735
      0.00127401	     -4.84001085	      2.05000016	     -2.05000016	      4.84001085	     -0.98000374	      7.92004553	      3.56000596	     -3.56000596	     -7.92004553	      0.98000374	    -50.00000000	     20.00000000	     50.00000000	     20.00000000	     90.00021046	     89.51739129	     -0.00000000	      0.12956288	      0.00000000	      0.06478144	     -0.00000000	      0.00000000	      0.00000000	     -0.00000000	     -0.00000000	     -0.00000000	     -0.00000000	      0.00000000	      0.00000000	      0.00000000	     -0.00000000	      0.00000000	      0.00000000	      0.00000000	     -0.00000000	   -712.42436432	     -0.00000000	    191.72043296	      0.00000000	     95.86021648	      0.04941867	      0.04346051	      0.04941867	      0.06680385	      0.04941867	      0.06138269	      0.04941867	      0.07147769	      0.04941867	      0.05228752	      0.04941867	      0.03695314	      0.04941867	      0.01769789
      0.00171127	     -4.84001085	      2.05000016	     -2.05000016	      4.84001085	     -0.98000374	      7.92004553	      3.56000596	     -3.56000596	     -7.92004553	      0.98000374	    -50.00000000	     20.00000000	     50.00000000	     20.00000000	     90.00021046	     89.16503570	     -0.00000000	      0.22453869	      0.00000000	      0.11226935	      0.00000000	      0.00000000	      0.00000000	     -0.00000000	     -0.00000000	     -0.00000000	      0.00000000	     -0.00000000	      0.00000000	      0.00000000	     -0.00000000	      0.00000000	      0.00000000	      0.00000000	      0.00000000	   -893.97052271	     -0.00000000	    241.34728667	      0.00000000	    120.67364334	      0.04922130	      0.04343559	      0.04922130	      0.06680354	      0.04922130	      0.06138312	      0.04922130	      0.07147769	      0.04922130	      0.05228610	      0.04922130	      0.03695204	      0.04922130	      0.01769885
      0.00214854	     -4.84001085	      2.05000016	     -2.05000016	      4.84001085	     -0.98000374	      7.92004553	      3.56000596	     -3.56000596	     -7.92004553	      0.98000374	    -50.00000000	     20.00000000	     50.00000000	     20.00000000	     90.00021046	     88.74006381	     -0.00000000	      0.33948216	      0.00000000	      0.16974108	      0.00000000	      0.00000000	      0.00000000	      0.00000000	     -0.00000000	     -0.00000000	      0.00000000	     -0.00000000	      0.00000000	      0.00000000	     -0.00000000	      0.00000000	      0.00000000	      0.00000000	      0.00000000	  -1044.85665143	     -0.00000000	    283.12270629	      0.00000000	    141.56135314	      0.04902501	      0.04339810	      0.04902501	      0.06680295	      0.04902501	      0.06138380	      0.04902501	      0.07147763	      0.04902501	      0.05228373	      0.04902501	      0.03695019	      0.04902501	      0.01770073
      0.00258580	     -4.84001085	      2.05000016	     -2.05000016	      4.84001085	     -0.98000374	      7.92004553	      3.56000596	     -3.56000596	     -7.92004553	      0.98000374	    -50.00000000	     20.00000000	     50.00000000	     20.00000000	     90.00021046	     88.25549726	     -0.00000000	      0.47105414	      0.00000000	      0.23552707	      0.00000000	      0.00000000	      0.00000000	     -0.00000000	     -0.00000000	     -0.00000000	     -0.00000000	     -0.00000000	      0.00000000	      0.00000000	     -0.00000000	      0.00000000	      0.00000000	      0.00000000	      0.00000000	  -1166.82510593	     -0.00000000	    317.47012424	      0.00000000	    158.73506212	      0.04882981	      0.04335247	      0.04882981	      0.06680202	      0.04882981	      0.06138479	      0.04882981	      0.07147749	      0.04882981	      0.05228019	      0.04882981	      0.03694741	      0.04882981	      0.01770415
      0.00312074	     -4.84001085	      2.05000016	     -2.05000016	      4.84001085	     -0.98000374	      7.92004553	      3.56000596	     -3.56000596	     -7.92004553	      0.98000374	    -50.00000000	     20.00000000	     50.00000000	     20.00000000	     90.00021046	     87.59941086	     -0.00000000	      0.65005366	      0.00000000	      0.32502683	      0.00000000	      0.00000000	      0.00000000	     -0.00000000	     -0.00000000	     -0.00000000	     -0.00000000	      0.00000000	      0.00000000	      0.00000000	     -0.00000000	      0.00000000	      0.00000000	      0.00000000	      0.00000000	  -1279.81944310	     -0.00000000	    350.12896063	      0.00000000	    175.06448031	      0.04859247	      0.04329333	      0.04859247	      0.06680036	      0.04859247	      0.06138650	      0.04859247	      0.07147716	      0.04859247	      0.05227397	      0.04859247	      0.03694253	      0.04859247	      0.01771107
      0.00349156	     -4.84001085	      2.05000016	     -2.05000016	      4.84001085	     -0.98000374	      7.92004553	      3.56000596	     -3.56000596	     -7.92004553	      0.98000374	    -50.00000000	     20.00000000	     50.00000000	     20.00000000	     90.00021046	     87.11376687	     -0.00000000	      0.78318509	      0.00000000	      0.39159254	      0.00000000	      0.00000000	      0.00000000	     -0.00000000	     -0.00000000	     -0.00000000	     -0.00000000	      0.00000000	      0.00000000	      0.00000000	     -0.00000000	      0.00000000	      0.00000000	      0.00000000	      0.00000000	  -1336.73313645	     -0.00000000	    367.19002434	      0.00000000	    183.59501217	      0.04842888	      0.04324511	      0.04842888	      0.06679883	      0.04842888	      0.06138809	      0.04842888	      0.07147683	      0.04842888	      0.05226828	      0.04842888	      0.03693806	      0.04842888	      0.01771774
